<svg height="512pt" preserveAspectRatio="xMidYMid meet" viewBox="0 0 512 512" width="512pt" xmlns="http://www.w3.org/2000/svg"><g transform="matrix(.1 0 0 -.1 0 512)"><path d="m0 2985v-2135l2133 2 2132 3 3 2133 2 2132h-2135-2135zm4050 430v-1495l-176 2-176 3-309 825c-320 855-323 861-383 876-13 3-39-1-59-10-32-13-82-84-430-606l-394-591-224 268c-122 147-230 273-238 280-29 22-69 25-104 8-30-14-75-84-346-536l-312-519h-345-344v1488c0 819 3 1492 7 1495 3 4 867 7 1920 7h1913zm-831-819c138-368 250-671 248-673s-524-2-1159-1l-1156 3 225 375c123 206 228 379 233 383 4 5 109-113 233-261 247-295 261-307 329-279 28 12 90 100 407 576 206 309 378 558 382 554 4-5 120-309 258-677zm831-1206v-320h-1920-1920v313c0 173 3 317 7 320 3 4 867 7 1920 7h1913z"/><path d="m1158 4461c-81-26-139-63-191-121-152-168-150-413 4-575 87-92 185-135 309-135s222 43 309 135c154 162 155 407 4 575-108 120-284 169-435 121zm225-223c116-64 142-224 54-325-127-145-367-55-367 137 0 168 167 268 313 188z"/><path d="m4480 2615v-1975h-1975-1975v-105-105h2080 2080v2080 2080h-105-105z"/><path d="m4908 2083-3-1868-1867-3-1868-2v-105-105h1975 1975v1975 1975h-105-105z"/></g></svg>