<svg id="Layer_1" data-name="Layer 1" xmlns="http://www.w3.org/2000/svg" width="64" height="64" viewBox="0 0 64 64"><defs><style>.cls-1{fill:#1d1d1b;}</style></defs><title>picture</title><path class="cls-1" d="M54.28,16c-.83-.29-7.71-1-9.46-1.21s-7-.37-7.33-.5.71-8.12,1-8.33a6.84,6.84,0,0,1,2.75.12c.21.17-.21,7.67-.13,7.79s.88.42,1.13.21.58-7.79.46-8.79-4.54-1-5.21-.58-1.38,9.21-1.38,9.37a45.67,45.67,0,0,1-5.83,0c-.29-.08.33-9.08,0-9.75s-4.46.13-4.83.33-1,9.09-1.09,9.38-5.75.08-8.21.21a9.48,9.48,0,0,0-5.45,2c-.67.71-1,8.29-1.38,12.66S7.82,36.56,7.66,40.23,8.2,44.64,9,45.39s6,.5,6,.5-.25,1.42,0,1.71,5.33.42,5.33.42S17.2,58.77,17.2,59.31s3.08.75,3.5.58,1-1.83,1.33-2.54,3.75-9.71,3.75-9.71,4.46-.41,4.58-.41.17,3.83.34,4.25,3.54.25,3.83.08.08-3.92.08-3.92l4.71.59S41,59.06,41.07,59.35s2.54,0,3-.12.92.08,1.09-.42-1.17-10-1.17-10a3.55,3.55,0,0,0,2.25-.08c1.5-.42,1.08-2.25,1.08-2.25l2.17.12c.87,0,2.87.38,4.46-.54s1.12-1.62,1.25-5S56,25.56,56.32,20.85,55.11,16.31,54.28,16ZM26.67,5.45c.06-.1,2.12-.63,2.43-.19s.35,8.69.1,8.69L25.6,14C25.6,13.79,26.6,5.54,26.67,5.45ZM21,56.7a15.46,15.46,0,0,1-.88,2c-.09,0-1.25-.13-1.25-.29S21.79,48.17,21.92,48s1.87-.22,2,0A76.43,76.43,0,0,1,21,56.7Zm12.15-6.28c-.21,0-1.37.21-1.37-.07s-.09-2.72-.06-2.87,1.5.19,1.5.19S33.35,50.38,33.13,50.42ZM43.7,58.07a9,9,0,0,1-1.85.06c0-.09-1.43-9.78-1.43-9.78a11.89,11.89,0,0,1,2.28.44C42.73,49,43.82,58,43.7,58.07Zm2-10.44c-.35.07-7.1-1.28-11.72-1.46a113.06,113.06,0,0,0-11.69.34c-4.84.22-5.65.69-5.81.06a9,9,0,0,1,.28-3.19c.28-.37,1.16-.28,6-.09s11,.72,14.66,1,8.31.37,8.43.59S46.07,47.57,45.73,47.63Zm7.94-13.84a24.39,24.39,0,0,0-.22,2.47s-1.1.06-1.1.56S53,40.2,53,40.29s-.19,3.28-.19,3.19-.68-5.35-1-5.41-1,.5-.94.94,1.54,5.44,1.38,5.62S52,45,52,44.82s-1.22-4.28-1.53-4.37-1.07.4-.94.59,1.47,3.72,1.06,3.69-1.22,0-1.25-.19a32.58,32.58,0,0,0-1.06-3.66c-.16,0-.88.1-.85.32s1,3.37.88,3.43-.75.32-.78-.06a27.72,27.72,0,0,0-1-4.09c-.19-.1-.94-.06-.88.12A15,15,0,0,1,46,43.42h-.66s-.44-2.79-.78-3-.91.22-.84.47a15.47,15.47,0,0,1,.37,2.65c-.12,0-.84.06-.84-.06S42.7,41,42.29,41s-.94.62-.94.62.91,1.94.6,1.91-.78,0-.78,0-.44-1.78-.75-1.78-.75.18-.75.37.28,1.31.12,1.35S36.23,43,29.42,42.6,18.26,42,17.17,42s-1.6.44-1.72.78a7.82,7.82,0,0,0-.22,1.28,10,10,0,0,1-3.72.38c-1.5-.28-1.78-1.25-2.06-3.81s1.62-9,2-13.22.87-9.82,1.31-10.28S13.51,16,18,16s9.31,0,15.09,0a88.57,88.57,0,0,1,12.1.81c4.56.47,9,.28,9,2.16S53.88,32,53.67,33.79ZM14.42,22.67c.34-.1.62-3.69.68-4s2.82-.25,2.91-.25a1.7,1.7,0,0,0,.12-1.13C18,17,15,17,14.29,17.38s-.84,5.16-.84,5.16C13.48,22.7,14.07,22.76,14.42,22.67Zm15.81-1.38A4.15,4.15,0,0,0,34,20.54s.78.16,1.75.28a2.23,2.23,0,0,0,1.69-.56,11.36,11.36,0,0,0,2.06.91A8.58,8.58,0,0,0,44,21c.56-.28.19-.69.09-.81S41.79,20.32,40,20,38,18.82,37.88,18.6s-.68-.25-1.06.13.16.75.19.87-.75.35-1.56.1a6.72,6.72,0,0,1-2.25-1.35c-.13-.22-1.5.1-1.66.25s1.75,1.47,1.75,1.47-2.12.72-3.22.22a6.18,6.18,0,0,1-2-1.78c-.15-.16-.75.19-.81.31A4.14,4.14,0,0,0,30.23,21.29Zm17.37-.66c-.37-.06-1.09.16-2.25,1.54s-4.62,6.4-4.81,6.68-1.5-1.93-2.75-3.22-3.28-3.28-3.94-3.28-5.25,2.57-5.25,2.57a4,4,0,0,1-.81-.75c-.53-.6-4-5-5.5-5.47s-2.69,3.06-3.66,5.12-4.46,7.78-4.46,7.78c.34.72,1.09.28,1.59-.37S21.6,20.2,22.1,20,28,26.1,28.6,26.35s4.94-2.56,5.22-2.84S36,25.63,36.2,26s-1.47,0-2.28.15-1.82,1.19-2.1,1.38-1.28-.19-2.31-.25a17.27,17.27,0,0,0-2.59.47c-.63,0-1.38-1.38-2.38-1.69s-1.59,1-2.28,1.34-1.28-.81-2.09-.93-1.91.78-2.38,1.65.41.94.66.88.87-1.22,1.53-1.38,1.5.91,2.69,1S24,27.38,24.2,27.23s1.72,1.28,2.5,1.69,1.68-.32,3-.38,1.78.31,2.81.13,1.31-1.35,2.34-1.47,1.44.87,2,.78.29-.91.41-.94S40,30.57,40.54,30.6,41.82,29,41.82,29a17.17,17.17,0,0,1,1.91-.75c.9-.28.87.34,1.28.69s1.19.12,1.59-.13,2,.19,2,.19.63,4,.63,4.4.87.38,1.28.25-.16-1.68-1.06-7.37S48,20.7,47.6,20.63Zm.75,6.85c-.4.12-1.59,0-2,.12s-.53.28-.68.22-.5-.56-1-.62a9.9,9.9,0,0,1-1.25-.28c0-.1,1.84-2.6,2.31-3.32S47,22.1,47.1,22.23,48.76,27.35,48.35,27.48ZM48,38a7.56,7.56,0,0,0-2.94-1.28s0-1.72.06-1.91a2.94,2.94,0,0,1,.54-.69,6.88,6.88,0,0,0,.81.1c.25,0,.25,0,.5-.38s-.1-1-1-1.31a4.09,4.09,0,0,0-2.59.44.84.84,0,0,0-.54,1.19,1.19,1.19,0,0,0,.94.59v1.75s-1.78-.19-3.12-.22a6.66,6.66,0,0,0-2.85.81,8.78,8.78,0,0,0-1.5-1.75c-.84-.72-1.28-1.09-4.15-1.75a12.12,12.12,0,0,0-6.22.72,6.12,6.12,0,0,0-1.28-.59,16.63,16.63,0,0,0-2.47-.53l.15-1.35.72-.4c.72-.41.69-.66.35-1s-1.1-.16-1.1-.16a1.39,1.39,0,0,0-1.25-.47A1,1,0,0,0,20.2,31c.09.53.84.62.84.62L21,33.29a23.59,23.59,0,0,0-3.44.81,9.22,9.22,0,0,0-3.44,2.13,2,2,0,0,0-.78,1.31c0,.22.66.38.91.38a12.38,12.38,0,0,1,3.94-2.66A9.14,9.14,0,0,1,24.63,35,9.55,9.55,0,0,1,28,37.57c.34.41,1-.15,1.22-.44s-2-1.87-2-1.87,1.4-.78,4.65-.44A8,8,0,0,1,37,37.63s-.25.29-.35.32.19.53.53.65.6-.25,2.25-.78,1.72-.31,4.5-.12A7.68,7.68,0,0,1,48.51,40c.09,0,.31,0,.56-.44S49.23,39,48,38Z"/></svg>